<svg width="25" height="25" viewBox="0 0 25 25" fill="none" xmlns="http://www.w3.org/2000/svg">
<g clip-path="url(#clip0_1_3306)">
<path d="M8.33325 5.20833C8.33325 4.10326 8.77224 3.04345 9.55364 2.26205C10.335 1.48065 11.3949 1.04166 12.4999 1.04166C13.605 1.04166 14.6648 1.48065 15.4462 2.26205C16.2276 3.04345 16.6666 4.10326 16.6666 5.20833V10.6823C17.9405 11.5693 18.8981 12.8398 19.4 14.3088C19.9019 15.7778 19.9218 17.3686 19.457 18.8497C18.9921 20.3309 18.0667 21.625 16.8154 22.5437C15.5641 23.4624 14.0523 23.9579 12.4999 23.9579C10.9476 23.9579 9.43572 23.4624 8.18444 22.5437C6.93315 21.625 6.00773 20.3309 5.54287 18.8497C5.078 17.3686 5.09796 15.7778 5.59984 14.3088C6.10171 12.8398 7.05931 11.5693 8.33325 10.6823V5.20833ZM9.52492 12.3906C8.61468 13.0241 7.93038 13.9315 7.57164 14.9808C7.2129 16.0301 7.19844 17.1665 7.53038 18.2247C7.86231 19.2828 8.52331 20.2073 9.41714 20.8637C10.311 21.5201 11.391 21.874 12.4999 21.874C13.6089 21.874 14.6889 21.5201 15.5827 20.8637C16.4765 20.2073 17.1375 19.2828 17.4695 18.2247C17.8014 17.1665 17.7869 16.0301 17.4282 14.9808C17.0695 13.9315 16.3852 13.0241 15.4749 12.3906L14.5833 11.7687V5.20833C14.5833 4.6558 14.3638 4.12589 13.9731 3.73519C13.5824 3.34449 13.0525 3.125 12.4999 3.125C11.9474 3.125 11.4175 3.34449 11.0268 3.73519C10.6361 4.12589 10.4166 4.6558 10.4166 5.20833V11.7687L9.52492 12.3906ZM11.4583 12.6312V5.20833H13.5416V12.6312C14.5213 12.8872 15.3743 13.491 15.9414 14.3299C16.5085 15.1687 16.7509 16.1853 16.6233 17.1898C16.4957 18.1943 16.0069 19.118 15.2481 19.7885C14.4893 20.459 13.5125 20.8304 12.4999 20.8333C11.4851 20.8343 10.5047 20.4649 9.74291 19.7944C8.9811 19.1239 8.4902 18.1984 8.36234 17.1916C8.23447 16.1848 8.47845 15.166 9.04847 14.3264C9.61849 13.4867 10.4754 12.884 11.4583 12.6312ZM12.4999 18.75C13.0525 18.75 13.5824 18.5305 13.9731 18.1398C14.3638 17.7491 14.5833 17.2192 14.5833 16.6667C14.5833 16.1141 14.3638 15.5842 13.9731 15.1935C13.5824 14.8028 13.0525 14.5833 12.4999 14.5833C11.9474 14.5833 11.4175 14.8028 11.0268 15.1935C10.6361 15.5842 10.4166 16.1141 10.4166 16.6667C10.4166 17.2192 10.6361 17.7491 11.0268 18.1398C11.4175 18.5305 11.9474 18.75 12.4999 18.75Z" fill="white"/>
</g>
<defs>
<clipPath id="clip0_1_3306">
<rect width="25" height="25" fill="white"/>
</clipPath>
</defs>
</svg>
