<svg width="86" height="88" viewBox="0 0 86 88" fill="none" xmlns="http://www.w3.org/2000/svg">
<path d="M61.9446 41.0991H62.126C62.3068 41.079 62.4819 41.0215 62.6404 40.9301C62.7989 40.8387 62.9377 40.7153 63.0483 40.5673C63.1588 40.4193 63.2389 40.2499 63.2836 40.0694C63.3283 39.8888 63.3368 39.7007 63.3084 39.5167C62.6614 34.4808 60.2485 29.8575 56.5193 26.5083C52.7902 23.1591 47.9991 21.3125 43.0389 21.3125C38.0787 21.3125 33.2877 23.1591 29.5585 26.5083C25.8294 29.8575 23.4165 34.4808 22.7695 39.5167C22.7457 39.7001 22.7574 39.8865 22.8039 40.0653C22.8504 40.2441 22.9309 40.4117 23.0407 40.5587C23.1505 40.7056 23.2874 40.829 23.4438 40.9217C23.6002 41.0144 23.7728 41.0747 23.9519 41.0991C24.131 41.1235 24.3131 41.1115 24.4876 41.0638C24.6622 41.0162 24.8259 40.9338 24.9694 40.8214C25.1129 40.7089 25.2334 40.5686 25.3239 40.4085C25.4145 40.2484 25.4733 40.0716 25.4972 39.8882C26.0514 35.5255 28.1372 31.5184 31.3652 28.6151C34.5931 25.7118 38.7426 24.1106 43.0389 24.1106C47.3353 24.1106 51.4848 25.7118 54.7127 28.6151C57.9407 31.5184 60.0265 35.5255 60.5807 39.8882C60.629 40.2238 60.7931 40.5305 61.0434 40.7527C61.2936 40.9748 61.6134 41.0977 61.9446 41.0991Z" fill="#00CD85"/>
<path fill-rule="evenodd" clip-rule="evenodd" d="M60.4688 41.25C57.6436 41.25 55.1105 42.5228 53.3843 44.5432C51.9376 46.2364 51.0625 48.4494 51.0625 50.875C51.0625 51.6344 50.4609 52.25 49.7188 52.25C48.9766 52.25 48.375 51.6344 48.375 50.875C48.375 47.7586 49.5025 44.9083 51.361 42.7331C53.5758 40.1408 56.8358 38.5 60.4688 38.5C67.1479 38.5 72.5625 44.0405 72.5625 50.875C72.5625 57.7095 67.1479 63.25 60.4688 63.25C59.7266 63.25 59.125 62.6344 59.125 61.875C59.125 61.1156 59.7266 60.5 60.4688 60.5C65.6637 60.5 69.875 56.1907 69.875 50.875C69.875 45.5593 65.6637 41.25 60.4688 41.25Z" fill="#00CD85"/>
<path d="M25.7458 63.4445C28.7925 63.4382 31.7272 62.268 33.9759 60.1629C34.2431 59.9111 34.4018 59.5609 34.4169 59.1893C34.432 58.8177 34.3024 58.4552 34.0565 58.1815C33.8106 57.9078 33.4686 57.7454 33.1057 57.7299C32.7429 57.7144 32.3888 57.8472 32.1216 58.099C30.3817 59.7336 28.1071 60.6418 25.7458 60.6445C23.3386 60.6175 21.029 59.6661 19.2742 57.9786C17.5193 56.2911 16.4471 53.9904 16.2697 51.532C16.0923 49.0736 16.8227 46.6365 18.3162 44.7032C19.8098 42.7699 21.9578 41.4812 24.3349 41.0922C24.8015 41.0149 25.2731 40.9735 25.7458 40.9684C26.1093 40.9684 26.4579 40.8205 26.7149 40.5573C26.972 40.2941 27.1164 39.9371 27.1164 39.5649C27.1164 39.1927 26.972 38.8357 26.7149 38.5725C26.4579 38.3093 26.1093 38.1614 25.7458 38.1614C25.1361 38.1652 24.5275 38.2158 23.9251 38.3128C20.8506 38.7927 18.0662 40.443 16.1282 42.9337C14.1902 45.4245 13.2414 48.5724 13.4713 51.7484C13.7013 54.9244 15.0931 57.8945 17.3686 60.0654C19.6441 62.2362 22.6358 63.4479 25.7458 63.4583V63.4445Z" fill="#00CD85"/>
<path d="M51.2287 69.4369C51.6373 69.4248 52.0283 69.2636 52.3309 68.9822C52.6336 68.7008 52.828 68.3179 52.8791 67.9026C52.9302 67.4873 52.8346 67.0669 52.6096 66.7175C52.3845 66.368 52.0449 66.1125 51.652 65.997C48.6011 65.185 45.8191 63.5494 43.5962 61.2607C41.3733 58.972 39.7911 56.1143 39.0148 52.9858C38.2385 49.8573 38.2965 46.5728 39.1828 43.4751C40.0691 40.3774 41.7512 37.5801 44.0534 35.3753C44.2297 35.2203 44.3735 35.0305 44.4761 34.8171C44.5788 34.6037 44.6382 34.3713 44.6507 34.1338C44.6632 33.8963 44.6287 33.6586 44.5491 33.4352C44.4695 33.2117 44.3465 33.0071 44.1875 32.8336C44.0286 32.6602 43.837 32.5215 43.6243 32.4259C43.4116 32.3304 43.1821 32.2799 42.9499 32.2776C42.7176 32.2753 42.4873 32.3213 42.2728 32.4126C42.0583 32.504 41.8642 32.6388 41.702 32.8091C38.3144 36.0572 36.0685 40.3594 35.3128 45.0482C35.1302 46.2038 35.0381 47.3725 35.0373 48.5431C35.0253 53.3191 36.5696 57.9628 39.4258 61.7386C42.2819 65.5144 46.2865 68.2066 50.8054 69.3887C50.9436 69.425 51.0861 69.4412 51.2287 69.4369V69.4369Z" fill="white"/>
<path d="M54.897 63.7955C55.1315 63.8105 55.3664 63.7762 55.5874 63.6946C55.8084 63.6131 56.0108 63.4861 56.182 63.3214C56.3532 63.1567 56.4897 62.9578 56.583 62.737C56.6762 62.5162 56.7244 62.2782 56.7244 62.0377C56.7244 61.7971 56.6762 61.5591 56.583 61.3384C56.4897 61.1176 56.3532 60.9187 56.182 60.754C56.0108 60.5893 55.8084 60.4623 55.5874 60.3807C55.3664 60.2992 55.1315 60.2649 54.897 60.2799C53.17 60.2582 51.47 59.8374 49.9239 59.0492C48.3777 58.2609 47.0253 57.1254 45.9674 55.7273C44.9095 54.3292 44.1735 52.7047 43.8142 50.9747C43.4549 49.2448 43.4816 47.4541 43.8922 45.7361C43.9465 45.5103 43.9568 45.2757 43.9225 45.0457C43.8882 44.8158 43.8101 44.595 43.6925 44.396C43.5749 44.197 43.4201 44.0237 43.2371 43.8859C43.0541 43.7482 42.8464 43.6487 42.6258 43.5931C42.4052 43.5375 42.1762 43.527 41.9516 43.5621C41.7271 43.5972 41.5115 43.6773 41.3171 43.7977C41.1228 43.9181 40.9535 44.0765 40.819 44.2639C40.6845 44.4514 40.5873 44.6641 40.533 44.8899C39.9915 47.1263 39.9523 49.4592 40.4183 51.7133C40.8843 53.9674 41.8434 56.084 43.2235 57.9037C44.6035 59.7235 46.3686 61.1992 48.3859 62.2197C50.4032 63.2402 52.6202 63.7789 54.8701 63.7955H54.897Z" fill="white"/>
<path d="M38.5915 69.2925C38.9303 69.293 39.2617 69.1906 39.5437 68.9983C39.8257 68.806 40.0456 68.5324 40.1758 68.2121C40.3059 67.8918 40.3404 67.5391 40.2749 67.1987C40.2093 66.8584 40.0467 66.5455 39.8076 66.2998C37.5278 63.9582 35.7217 61.1789 34.4928 58.1213C33.2638 55.0636 32.6361 51.7877 32.6457 48.4812C32.6477 47.4904 32.7038 46.5005 32.8137 45.5161C33.0206 43.7266 33.4125 41.9647 33.9827 40.2599C34.1122 39.8234 34.0711 39.3524 33.8682 38.9462C33.6653 38.54 33.3164 38.2303 32.895 38.0822C32.4735 37.9342 32.0124 37.9595 31.6088 38.1526C31.2051 38.3458 30.8904 38.6919 30.731 39.1179C29.0353 44.2035 28.7582 49.6726 29.9307 54.9107C31.1033 60.1487 33.6791 64.9481 37.3688 68.7696C37.5289 68.9349 37.7194 69.0662 37.9292 69.1559C38.1391 69.2456 38.3641 69.292 38.5915 69.2925Z" fill="white"/>
</svg>
