<svg width="26" height="26" viewBox="0 0 26 26" fill="none" xmlns="http://www.w3.org/2000/svg">
<g clip-path="url(#clip0_1_3223)">
<path d="M5.92231 15.4483C5.70256 15.5257 5.49426 15.6273 5.30063 15.75C4.43873 15.3934 3.63143 14.8629 2.93176 14.1584C0.0906194 11.3269 0.0906194 6.72378 2.93176 3.89223C3.22241 3.60181 3.52759 3.34044 3.85458 3.1081C4.39955 2.7233 5.25698 3.36948 5.19885 3.97209C5.00266 6.04856 5.70023 8.2049 7.29882 9.79492C7.90895 10.4073 8.60132 10.8874 9.34072 11.2355C7.39935 11.5562 5.9187 13.2426 5.9187 15.2748C5.9187 15.333 5.91991 15.3908 5.92231 15.4483Z" fill="white"/>
<path d="M11.5823 6.53538L12.1215 8.32311C12.0683 8.3658 12.016 8.40942 11.9644 8.45397L10.3929 7.38764L8.57426 8.62171L9.20353 6.53538L7.45402 5.21268L9.65992 5.15132L10.3929 3.1059L11.1259 5.15132L13.3318 5.21268L11.5823 6.53538Z" fill="white"/>
<path d="M17.7999 5.32177L18.934 4.46952L17.5095 4.43543L17.0324 3.10591L16.5552 4.43543L15.1307 4.46952L16.2648 5.32177L15.8568 6.67175L17.0324 5.87404L18.2079 6.67175L17.7999 5.32177Z" fill="white"/>
<path d="M7.96582 22.4398H21.2721C23.5333 22.4398 25.3663 20.6067 25.3663 18.3455C25.3663 16.4252 24.0442 14.8136 22.2606 14.3714C22.2838 14.164 22.2957 13.9531 22.2957 13.7395C22.2957 10.6304 19.7752 8.10993 16.6661 8.10993C14.0873 8.10993 11.9135 9.84387 11.2469 12.2095C11.1772 12.206 11.1071 12.2042 11.0365 12.2042C8.77532 12.2042 6.94226 14.0372 6.94226 16.2984C6.94226 16.3565 6.94347 16.4143 6.94587 16.4719C5.75134 16.8924 4.89514 18.0307 4.89514 19.3691C4.89514 21.065 6.26993 22.4398 7.96582 22.4398Z" fill="white"/>
</g>
<defs>
<clipPath id="clip0_1_3223">
<rect width="24.5654" height="24.5654" fill="white" transform="translate(0.800903 0.945007)"/>
</clipPath>
</defs>
</svg>
