<svg width="26" height="26" viewBox="0 0 26 26" fill="none" xmlns="http://www.w3.org/2000/svg">
<path d="M15.9016 18.2042H18.9631C21.2243 18.2042 23.0574 16.3711 23.0574 14.1099C23.0574 12.1896 21.7353 10.578 19.9516 10.1358C19.9748 9.92838 19.9867 9.71753 19.9867 9.50391C19.9867 6.39478 17.4663 3.87433 14.3571 3.87433C11.7783 3.87433 9.60451 5.60827 8.93795 7.97388C8.86826 7.97036 8.79811 7.96857 8.72754 7.96857C6.46636 7.96857 4.6333 9.80162 4.6333 12.0628C4.6333 12.1209 4.63451 12.1787 4.63691 12.2363C3.44238 12.6568 2.58618 13.7951 2.58618 15.1335C2.58618 16.8294 3.96097 18.2042 5.65686 18.2042H8.57222L12.9566 10.5314C13.4774 9.62009 14.8689 9.98963 14.8689 11.0392V15.1335H15.8925C16.6784 15.1335 17.1711 15.9825 16.7812 16.6649L15.9016 18.2042Z" fill="white"/>
<path d="M9.7511 18.2042L13.8453 11.0392V16.1571H15.8925L11.7982 23.322V18.2042H9.7511Z" fill="white"/>
</svg>
