<svg width="25" height="25" viewBox="0 0 25 25" fill="none" xmlns="http://www.w3.org/2000/svg">
<path d="M15.5275 17.7539H18.5891C20.8503 17.7539 22.6834 15.9209 22.6834 13.6597C22.6834 11.7393 21.3613 10.1278 19.5776 9.68556C19.6008 9.47812 19.6127 9.26728 19.6127 9.05365C19.6127 5.94452 17.0922 3.42407 13.9831 3.42407C11.4043 3.42407 9.23048 5.15802 8.56393 7.52363C8.49424 7.5201 8.42409 7.51831 8.35352 7.51831C6.09233 7.51831 4.25928 9.35137 4.25928 11.6126C4.25928 11.6707 4.26049 11.7285 4.26289 11.786C3.06836 12.2065 2.21216 13.3449 2.21216 14.6832C2.21216 16.3791 3.58695 17.7539 5.28284 17.7539H8.19819L12.5826 10.0812C13.1034 9.16984 14.4949 9.53937 14.4949 10.589V14.6832H15.5184C16.3044 14.6832 16.7971 15.5323 16.4071 16.2146L15.5275 17.7539Z" fill="white"/>
<path d="M9.37708 17.7539L13.4713 10.589V15.7068H15.5184L11.4242 22.8717V17.7539H9.37708Z" fill="white"/>
</svg>
