<svg width="25" height="25" viewBox="0 0 25 25" fill="none" xmlns="http://www.w3.org/2000/svg">
<path d="M13.1772 2.33333L12.5001 1.75L11.823 2.33333C11.4584 2.60417 4.16675 8.95833 4.16675 14.5833C4.16675 16.7935 5.04472 18.9131 6.60752 20.4759C8.17033 22.0387 10.2899 22.9167 12.5001 22.9167C14.7102 22.9167 16.8298 22.0387 18.3926 20.4759C19.9554 18.9131 20.8334 16.7935 20.8334 14.5833C20.8334 8.95833 13.5417 2.60417 13.1772 2.33333ZM14.823 19.2396L13.8959 17.375C14.4148 17.116 14.8514 16.7176 15.1567 16.2246C15.4621 15.7316 15.6243 15.1633 15.6251 14.5833H17.7084C17.7074 15.5509 17.4369 16.499 16.9273 17.3214C16.4176 18.1439 15.689 18.8081 14.823 19.2396Z" fill="white"/>
</svg>
