<svg width="21" height="21" viewBox="0 0 21 21" fill="none" xmlns="http://www.w3.org/2000/svg">
<path fill-rule="evenodd" clip-rule="evenodd" d="M17.6777 10.8372C17.6777 6.86151 14.4548 3.63857 10.4791 3.63857C6.50339 3.63857 3.28045 6.86151 3.28045 10.8372C3.28045 14.8129 6.50339 18.0359 10.4791 18.0359C14.4548 18.0359 17.6777 14.8129 17.6777 10.8372ZM9.84392 6.60272C9.84392 6.25192 10.1283 5.96754 10.4791 5.96754C10.8299 5.96754 11.1143 6.25192 11.1143 6.60272V10.8372C11.1143 11.0562 11.0014 11.2598 10.8157 11.3758L8.27503 12.9638C7.97756 13.1497 7.58569 13.0593 7.39977 12.7618C7.21384 12.4643 7.30428 12.0724 7.60175 11.8865L9.84392 10.4852V6.60272Z" fill="white"/>
</svg>
