<svg width="25" height="26" viewBox="0 0 25 26" fill="none" xmlns="http://www.w3.org/2000/svg">
<g clip-path="url(#clip0_1_3191)">
<path d="M4.84739 13.4909C5.04101 13.3682 5.24931 13.2665 5.46906 13.1891C5.46667 13.1316 5.46546 13.0738 5.46546 13.0157C5.46546 10.9835 6.9461 9.29704 8.88748 8.97637C8.14807 8.62824 7.4557 8.14817 6.84557 7.53576C5.24698 5.94574 4.54941 3.78941 4.7456 1.71294C4.80373 1.11032 3.94631 0.464149 3.40133 0.848949C3.07435 1.08128 2.76916 1.34266 2.47851 1.63307C-0.362628 4.46462 -0.362628 9.06771 2.47851 11.8993C3.17818 12.6037 3.98549 13.1343 4.84739 13.4909Z" fill="white"/>
<path d="M11.6683 6.06396L11.1291 4.27623L12.8786 2.95353L10.6727 2.89216L9.93967 0.846747L9.20668 2.89216L7.00078 2.95353L8.75029 4.27623L8.12102 6.36255L9.93967 5.12848L11.5111 6.19481C11.5627 6.15027 11.6151 6.10664 11.6683 6.06396Z" fill="white"/>
<path d="M18.4808 2.21036L17.3467 3.06262L17.7547 4.41259L16.5791 3.61488L15.4036 4.41259L15.8115 3.06262L14.6775 2.21036L16.102 2.17627L16.5791 0.846752L17.0563 2.17627L18.4808 2.21036Z" fill="white"/>
<path d="M20.8189 20.1806H17.7573L18.6369 18.6413C19.0268 17.959 18.5341 17.1099 17.7482 17.1099H16.7246V13.0157C16.7246 11.9661 15.3331 11.5965 14.8124 12.5079L10.4279 20.1806H7.51258C5.81669 20.1806 4.4419 18.8058 4.4419 17.1099C4.4419 15.7716 5.29809 14.6332 6.49263 14.2127C6.49023 14.1552 6.48902 14.0974 6.48902 14.0393C6.48902 11.7781 8.32207 9.94501 10.5833 9.94501C10.6538 9.94501 10.724 9.9468 10.7937 9.95033C11.4602 7.58472 13.634 5.85077 16.2128 5.85077C19.322 5.85077 21.8424 8.37122 21.8424 11.4804C21.8424 11.694 21.8305 11.9048 21.8074 12.1123C23.591 12.5545 24.9131 14.166 24.9131 16.0864C24.9131 18.3476 23.08 20.1806 20.8189 20.1806Z" fill="white"/>
<path d="M11.6068 20.1806H13.6539V25.2984L17.7482 18.1335H15.7011V13.0157L11.6068 20.1806Z" fill="white"/>
</g>
<defs>
<clipPath id="clip0_1_3191">
<rect width="24.5654" height="24.5654" fill="white" transform="translate(0.347656 0.732971)"/>
</clipPath>
</defs>
</svg>
