<svg width="24" height="25" viewBox="0 0 24 25" fill="none" xmlns="http://www.w3.org/2000/svg">
<g clip-path="url(#clip0_1_3215)">
<path d="M5.00352 12.5229C4.78883 12.5984 4.58533 12.6978 4.39616 12.8177C3.5541 12.4692 2.76537 11.9509 2.0818 11.2627C-0.693935 8.49628 -0.693935 3.99915 2.0818 1.23277C2.36577 0.949044 2.66393 0.693687 2.98339 0.466702C3.51582 0.0907591 4.35351 0.72206 4.29672 1.3108C4.10504 3.33948 4.78655 5.44618 6.34835 6.9996C6.94443 7.59791 7.62087 8.06693 8.34325 8.40705C6.44656 8.72034 5 10.3679 5 12.3534C5 12.4102 5.00118 12.4667 5.00352 12.5229Z" fill="white"/>
<path d="M10.5332 3.81509L11.06 5.56168C11.0081 5.60337 10.9569 5.64599 10.9065 5.68952L9.37123 4.64773L7.59443 5.85339L8.20922 3.81509L6.49998 2.52284L8.65511 2.46289L9.37123 0.46455L10.0874 2.46289L12.2425 2.52284L10.5332 3.81509Z" fill="white"/>
<path d="M16.6077 2.62942L17.7157 1.79678L16.324 1.76347L15.8578 0.464556L15.3917 1.76347L14 1.79678L15.1079 2.62942L14.7093 3.94832L15.8578 3.16897L17.0063 3.94832L16.6077 2.62942Z" fill="white"/>
<path d="M19.0089 19.3534H20C22.2091 19.3534 24 17.5625 24 15.3534C24 13.4772 22.7083 11.9028 20.9657 11.4708C20.9884 11.2681 21 11.0621 21 10.8534C21 7.81583 18.5376 5.35339 15.5 5.35339C12.9806 5.35339 10.8568 7.04743 10.2056 9.35859C10.1375 9.35514 10.0689 9.35339 10 9.35339C7.79086 9.35339 6 11.1443 6 13.3534C6 13.4102 6.00118 13.4667 6.00352 13.5229C4.83649 13.9337 4 15.0459 4 16.3534C4 18.0102 5.34315 19.3534 7 19.3534H11.8482L16.1318 11.8573C16.6405 10.9669 18 11.3279 18 12.3534V16.3534H19C19.7678 16.3534 20.2492 17.1829 19.8682 17.8495L19.0089 19.3534Z" fill="white"/>
<path d="M13 19.3534L17 12.3534V17.3534H19L15 24.3534V19.3534H13Z" fill="white"/>
<path d="M11.5517 24.3534H10.4483L10.5586 23.1312L9.55172 23.8395L9 22.8673L10.1034 22.3534L9 21.8395L9.55172 20.8673L10.5586 21.5756L10.4483 20.3534H11.5517L11.4414 21.5756L12.4483 20.8673L13 21.8395L11.8966 22.3534L13 22.8673L12.4483 23.8395L11.4414 23.1312L11.5517 24.3534Z" fill="white"/>
</g>
<defs>
<clipPath id="clip0_1_3215">
<rect width="24" height="24" fill="white" transform="translate(0 0.353394)"/>
</clipPath>
</defs>
</svg>
