<svg width="321" height="321" viewBox="0 0 321 321" fill="none" xmlns="http://www.w3.org/2000/svg">
<path d="M45.0292 58.7608L41.5517 55.2833C38.0742 51.8058 32.4567 51.895 29.0683 55.2833L28.9792 55.3725C25.5017 58.85 25.5017 64.4675 28.9792 67.8558L32.4567 71.3333C35.9342 74.8108 41.4625 74.8108 44.94 71.3333L45.0292 71.2442C48.5067 67.8558 48.5067 62.1492 45.0292 58.7608Z" fill="white"/>
<path d="M17.9225 115.471H8.8275C3.92333 115.471 0 119.394 0 124.298V124.388C0 129.292 3.92333 133.215 8.8275 133.215H17.8333C22.8267 133.304 26.75 129.381 26.75 124.477V124.388C26.75 119.394 22.8267 115.471 17.9225 115.471Z" fill="white"/>
<path d="M98.1725 26.75H98.0833C93.09 26.75 89.1667 30.6733 89.1667 35.5775V44.1375C89.1667 49.0417 93.09 52.965 97.9942 52.965H98.0833C103.077 53.0542 107 49.1308 107 44.2267V35.5775C107 30.6733 103.077 26.75 98.1725 26.75Z" fill="white"/>
<path d="M167.188 55.3725C163.71 51.895 158.093 51.895 154.615 55.2833L151.138 58.7608C147.66 62.2383 147.66 67.8558 151.138 71.2442L151.227 71.3333C154.704 74.8108 160.322 74.8108 163.71 71.3333L167.188 67.8558C170.665 64.3783 170.665 58.85 167.188 55.3725Z" fill="white"/>
<path d="M98.0833 70.8875C68.5692 70.8875 44.5833 94.8733 44.5833 124.388C44.5833 143.519 54.6613 160.327 69.7904 169.786C77.0297 148.814 96.9432 133.75 120.375 133.75C121.297 133.75 122.214 133.773 123.124 133.819C126.987 120.111 134.723 108.026 145.076 98.8207C135.996 82.1882 118.342 70.8875 98.0833 70.8875Z" fill="white"/>
<path d="M28.9792 193.403C32.4567 196.88 38.0742 196.88 41.5517 193.403L45.0292 189.925C48.5067 186.448 48.4175 180.83 45.0292 177.442L44.94 177.353C41.4625 173.875 35.845 173.875 32.3675 177.353L28.89 180.83C25.5017 184.397 25.5017 189.925 28.9792 193.403Z" fill="white"/>
<path d="M93.625 280.875H267.5C297.047 280.875 321 256.922 321 227.375C321 202.281 303.724 181.223 280.417 175.445C280.72 172.734 280.875 169.979 280.875 167.188C280.875 126.56 247.94 93.625 207.312 93.625C173.615 93.625 145.209 116.283 136.499 147.194C135.589 147.148 134.672 147.125 133.75 147.125C104.203 147.125 80.25 171.078 80.25 200.625C80.25 201.384 80.2658 202.14 80.2971 202.892C64.6881 208.387 53.5 223.262 53.5 240.75C53.5 262.91 71.4646 280.875 93.625 280.875Z" fill="white"/>
</svg>
