<svg width="284" height="35" viewBox="0 0 284 35" fill="none" xmlns="http://www.w3.org/2000/svg">
<g clip-path="url(#clip0_1_3264)">
<path d="M129.093 5.6612L128.758 5.33489C128.422 5.00859 127.879 5.01695 127.552 5.33489L127.543 5.34326C127.207 5.66957 127.207 6.19668 127.543 6.51462L127.879 6.84093C128.215 7.16723 128.749 7.16723 129.085 6.84093L129.093 6.83256C129.429 6.51462 129.429 5.97914 129.093 5.6612Z" fill="white"/>
<path d="M126.475 10.9825H125.597C125.123 10.9825 124.744 11.3507 124.744 11.8108V11.8192C124.744 12.2794 125.123 12.6475 125.597 12.6475H126.466C126.949 12.6559 127.328 12.2877 127.328 11.8276V11.8192C127.328 11.3507 126.949 10.9825 126.475 10.9825Z" fill="white"/>
<path d="M134.227 2.6575H134.218C133.736 2.6575 133.357 3.02565 133.357 3.48582V4.28904C133.357 4.74922 133.736 5.11736 134.21 5.11736H134.218C134.7 5.12572 135.079 4.75758 135.079 4.29741V3.48582C135.079 3.02565 134.7 2.6575 134.227 2.6575Z" fill="white"/>
<path d="M140.893 5.34326C140.557 5.01695 140.015 5.01695 139.679 5.33489L139.343 5.6612C139.007 5.98751 139.007 6.51462 139.343 6.83256L139.351 6.84093C139.687 7.16723 140.23 7.16723 140.557 6.84093L140.893 6.51462C141.229 6.18831 141.229 5.66957 140.893 5.34326Z" fill="white"/>
<path d="M134.218 6.79909C131.367 6.79909 129.05 9.04977 129.05 11.8192C129.05 13.6143 130.024 15.1915 131.485 16.0791C132.184 14.1112 134.108 12.6977 136.371 12.6977C136.46 12.6977 136.549 12.6999 136.637 12.7042C137.01 11.4179 137.757 10.284 138.757 9.42017C137.88 7.85948 136.175 6.79909 134.218 6.79909Z" fill="white"/>
<path d="M127.543 18.2951C127.879 18.6214 128.422 18.6214 128.758 18.2951L129.093 17.9688C129.429 17.6425 129.421 17.1154 129.093 16.7975L129.085 16.7891C128.749 16.4628 128.206 16.4628 127.87 16.7891L127.534 17.1154C127.207 17.4501 127.207 17.9688 127.543 18.2951Z" fill="white"/>
<path d="M133.787 26.503H150.583C153.437 26.503 155.75 24.2554 155.75 21.4829C155.75 19.1283 154.082 17.1523 151.83 16.6101C151.86 16.3557 151.875 16.0972 151.875 15.8353C151.875 12.0231 148.693 8.93264 144.769 8.93264C141.514 8.93264 138.77 11.0587 137.929 13.9593C137.841 13.9549 137.752 13.9527 137.663 13.9527C134.809 13.9527 132.496 16.2003 132.496 18.9729C132.496 19.0441 132.497 19.115 132.5 19.1855C130.992 19.7011 129.912 21.0969 129.912 22.7379C129.912 24.8173 131.647 26.503 133.787 26.503Z" fill="white"/>
</g>
<path d="M72.9764 11.4498L72.5443 11.0159C72.1122 10.5821 71.4143 10.5932 70.9933 11.0159L70.9822 11.0271C70.5501 11.4609 70.5501 12.1618 70.9822 12.5845L71.4143 13.0183C71.8463 13.4522 72.5332 13.4522 72.9653 13.0183L72.9764 13.0072C73.4085 12.5845 73.4085 11.8725 72.9764 11.4498ZM69.6084 18.5249H68.4784C67.8691 18.5249 67.3816 19.0143 67.3816 19.6262V19.6373C67.3816 20.2491 67.8691 20.7386 68.4784 20.7386H69.5974C70.2178 20.7497 70.7052 20.2603 70.7052 19.6484V19.6373C70.7052 19.0143 70.2178 18.5249 69.6084 18.5249ZM79.5794 7.45616H79.5683C78.9479 7.45616 78.4604 7.94563 78.4604 8.55747V9.6254C78.4604 10.2372 78.9479 10.7267 79.5572 10.7267H79.5683C80.1887 10.7378 80.6762 10.2484 80.6762 9.63653V8.55747C80.6762 7.94563 80.1887 7.45616 79.5794 7.45616ZM88.1543 11.0271C87.7223 10.5932 87.0243 10.5932 86.5922 11.0159L86.1602 11.4498C85.7281 11.8836 85.7281 12.5845 86.1602 13.0072L86.1712 13.0183C86.6033 13.4522 87.3013 13.4522 87.7223 13.0183L88.1543 12.5845C88.5864 12.1506 88.5864 11.4609 88.1543 11.0271ZM86.1491 27.8248L86.5812 28.2587C87.0132 28.6925 87.7112 28.6925 88.1433 28.2587C88.5753 27.8248 88.5753 27.124 88.1433 26.6901L87.7112 26.2563C87.2791 25.8224 86.5812 25.8336 86.1602 26.2563C85.717 26.7013 85.717 27.391 86.1491 27.8248ZM88.4313 19.6262V19.6373C88.4313 20.2491 88.9188 20.7386 89.5281 20.7386H90.6471C91.2564 20.7386 91.7439 20.2491 91.7439 19.6373V19.6262C91.7439 19.0143 91.2564 18.5249 90.6471 18.5249H89.5281C88.9188 18.5249 88.4313 19.0143 88.4313 19.6262ZM79.5683 12.9627C75.9012 12.9627 72.921 15.9551 72.921 19.6373C72.921 23.3195 75.9012 26.3119 79.5683 26.3119C83.2354 26.3119 86.2156 23.3195 86.2156 19.6373C86.2156 15.9551 83.2354 12.9627 79.5683 12.9627ZM79.5572 31.8184H79.5683C80.1776 31.8184 80.6651 31.329 80.6651 30.7171V29.6492C80.6651 29.0374 80.1776 28.5479 79.5683 28.5479H79.5572C78.9479 28.5479 78.4604 29.0374 78.4604 29.6492V30.7171C78.4604 31.329 78.9479 31.8184 79.5572 31.8184ZM70.9822 28.2475C71.4143 28.6814 72.1122 28.6814 72.5443 28.2475L72.9764 27.8137C73.4085 27.3798 73.3974 26.679 72.9764 26.2563L72.9653 26.2452C72.5332 25.8113 71.8353 25.8113 71.4032 26.2452L70.9711 26.679C70.5501 27.124 70.5501 27.8137 70.9822 28.2475Z" fill="white" fill-opacity="0.8"/>
<g clip-path="url(#clip1_1_3264)">
<path d="M193.741 8.71119L194.028 8.9991C194.316 9.27964 194.316 9.75212 194.028 10.0327L194.021 10.04C193.733 10.328 193.275 10.328 192.988 10.04L192.7 9.75212C192.412 9.47159 192.412 9.00649 192.7 8.71857L192.707 8.71119C192.988 8.43065 193.453 8.42327 193.741 8.71119Z" fill="white" fill-opacity="0.8"/>
<path d="M191.031 13.6944H191.784C192.19 13.6944 192.515 14.0192 192.515 14.4326V14.44C192.515 14.8461 192.19 15.1709 191.777 15.1635H191.031C190.625 15.1635 190.3 14.8387 190.3 14.4326V14.4253C190.3 14.0192 190.625 13.6944 191.031 13.6944Z" fill="white" fill-opacity="0.8"/>
<path d="M198.421 6.34878H198.428C198.834 6.34878 199.159 6.67361 199.159 7.07965V7.79576C199.159 8.20179 198.834 8.52662 198.421 8.51924H198.414C198.008 8.51924 197.683 8.19441 197.683 7.78837V7.07965C197.683 6.67361 198.008 6.34878 198.421 6.34878Z" fill="white" fill-opacity="0.8"/>
<path d="M203.102 8.71119C203.389 8.43065 203.855 8.43065 204.142 8.71857C204.43 9.00649 204.43 9.4642 204.142 9.75212L203.855 10.04C203.574 10.328 203.109 10.328 202.821 10.04L202.814 10.0327C202.526 9.75212 202.526 9.28702 202.814 8.9991L203.102 8.71119Z" fill="white" fill-opacity="0.8"/>
<path d="M193.992 14.4326C193.992 11.989 195.977 10.0031 198.421 10.0031C200.098 10.0031 201.56 10.9388 202.312 12.3158C201.455 13.078 200.814 14.0786 200.494 15.2135C200.419 15.2097 200.343 15.2078 200.267 15.2078C198.327 15.2078 196.678 16.455 196.079 18.1913C194.826 17.4082 193.992 16.0166 193.992 14.4326Z" fill="white" fill-opacity="0.8"/>
<path d="M193.741 20.1467C193.453 20.4346 192.988 20.4346 192.7 20.1467C192.412 19.8588 192.412 19.4011 192.692 19.1058L192.98 18.8178C193.268 18.5299 193.733 18.5299 194.021 18.8178L194.028 18.8252C194.309 19.1058 194.316 19.5709 194.028 19.8588L193.741 20.1467Z" fill="white" fill-opacity="0.8"/>
<path d="M212.448 27.3889H198.052C196.217 27.3889 194.73 25.9016 194.73 24.0668C194.73 22.6189 195.656 21.3873 196.948 20.9323C196.946 20.8701 196.945 20.8075 196.945 20.7447C196.945 18.2983 198.928 16.3152 201.374 16.3152C201.45 16.3152 201.526 16.3171 201.602 16.3209C202.323 13.7616 204.675 11.8857 207.465 11.8857C210.828 11.8857 213.555 14.6125 213.555 17.9762C213.555 18.2074 213.542 18.4355 213.517 18.6599C215.447 19.1383 216.877 20.8818 216.877 22.9594C216.877 25.4058 214.894 27.3889 212.448 27.3889Z" fill="white" fill-opacity="0.8"/>
<path d="M201.358 31.8508L202.83 28.907C202.956 28.6553 203.213 28.4963 203.494 28.4963C204.046 28.4963 204.406 29.0775 204.159 29.5714L202.687 32.5152C202.561 32.7668 202.304 32.9258 202.022 32.9258C201.47 32.9258 201.111 32.3447 201.358 31.8508Z" fill="white" fill-opacity="0.8"/>
<path d="M204.68 31.8508L206.152 28.907C206.278 28.6553 206.535 28.4963 206.816 28.4963C207.369 28.4963 207.728 29.0775 207.481 29.5714L206.009 32.5152C205.883 32.7668 205.626 32.9258 205.344 32.9258C204.792 32.9258 204.433 32.3447 204.68 31.8508Z" fill="white" fill-opacity="0.8"/>
</g>
<path d="M5.88532 27.4628H19.3215C21.6047 27.4628 23.4557 25.6118 23.4557 23.3286C23.4557 21.3895 22.1207 19.7622 20.3196 19.3157C20.343 19.1062 20.355 18.8933 20.355 18.6776C20.355 15.5381 17.81 12.993 14.6705 12.993C12.0665 12.993 9.8715 14.7439 9.19844 17.1326C9.12807 17.1291 9.05723 17.1272 8.98598 17.1272C6.70272 17.1272 4.85177 18.9782 4.85177 21.2615C4.85177 21.3201 4.85299 21.3785 4.85541 21.4366C3.64922 21.8612 2.78467 23.0107 2.78467 24.3621C2.78467 26.0746 4.17288 27.4628 5.88532 27.4628Z" fill="white" fill-opacity="0.6"/>
<path d="M8.38092 28.4963C8.11831 28.4963 7.87824 28.6447 7.76079 28.8796L6.38702 31.6271C6.15652 32.0881 6.49174 32.6305 7.00715 32.6305C7.26976 32.6305 7.50984 32.4821 7.62728 32.2473L9.00106 29.4997C9.23155 29.0387 8.89633 28.4963 8.38092 28.4963Z" fill="white" fill-opacity="0.6"/>
<path d="M11.4816 28.4963C11.997 28.4963 12.3322 29.0387 12.1017 29.4997L10.7279 32.2473C10.6105 32.4821 10.3704 32.6305 10.1078 32.6305C9.5924 32.6305 9.25718 32.0881 9.48767 31.6271L10.8614 28.8796C10.9789 28.6447 11.219 28.4963 11.4816 28.4963Z" fill="white" fill-opacity="0.6"/>
<path d="M17.6829 28.4963C18.1983 28.4963 18.5335 29.0387 18.303 29.4997L16.9292 32.2473C16.8118 32.4821 16.5717 32.6305 16.3091 32.6305C15.7937 32.6305 15.4585 32.0881 15.689 31.6271L17.0628 28.8796C17.1802 28.6447 17.4203 28.4963 17.6829 28.4963Z" fill="white" fill-opacity="0.6"/>
<path d="M14.5822 28.4963C15.0976 28.4963 15.4329 29.0387 15.2024 29.4997L13.8286 32.2473C13.7111 32.4821 13.4711 32.6305 13.2085 32.6305C12.6931 32.6305 12.3578 32.0881 12.5883 31.6271L13.9621 28.8796C14.0795 28.6447 14.3196 28.4963 14.5822 28.4963Z" fill="white" fill-opacity="0.6"/>
<path d="M274.027 27.4628H277.118C279.402 27.4628 281.253 25.6118 281.253 23.3286C281.253 21.3895 279.918 19.7622 278.117 19.3157C278.14 19.1062 278.152 18.8933 278.152 18.6776C278.152 15.5381 275.607 12.9931 272.467 12.9931C269.863 12.9931 267.668 14.7439 266.995 17.1326C266.925 17.1291 266.854 17.1273 266.783 17.1273C264.5 17.1273 262.649 18.9782 262.649 21.2615C262.649 21.3201 262.65 21.3785 262.652 21.4366C261.446 21.8612 260.582 23.0107 260.582 24.3621C260.582 26.0746 261.97 27.4628 263.682 27.4628H266.626L271.053 19.7151C271.579 18.7949 272.984 19.168 272.984 20.2279V24.3621H274.018C274.811 24.3621 275.309 25.2194 274.915 25.9085L274.027 27.4628Z" fill="white" fill-opacity="0.6"/>
<path d="M267.816 27.4628L271.951 20.2279V25.3957H274.018L269.884 32.6305V27.4628H267.816Z" fill="white" fill-opacity="0.6"/>
<defs>
<clipPath id="clip0_1_3264">
<rect width="31.0065" height="30.1206" fill="white" transform="translate(124.744 0.147469)"/>
</clipPath>
<clipPath id="clip1_1_3264">
<rect width="26.577" height="26.577" fill="white" transform="translate(190.3 6.34878)"/>
</clipPath>
</defs>
</svg>
