<svg width="21" height="20" viewBox="0 0 21 20" fill="none" xmlns="http://www.w3.org/2000/svg">
<path d="M13.5278 14.6832H16.5894C18.8506 14.6832 20.6836 12.8502 20.6836 10.589C20.6836 8.66864 19.3615 7.05707 17.5779 6.61488C17.601 6.40744 17.6129 6.1966 17.6129 5.98297C17.6129 2.87384 15.0925 0.353394 11.9833 0.353394C9.40454 0.353394 7.23073 2.08734 6.56417 4.45295C6.49448 4.44942 6.42433 4.44763 6.35376 4.44763C4.09258 4.44763 2.25952 6.28069 2.25952 8.54187C2.25952 8.59998 2.26073 8.65781 2.26313 8.71533C1.0686 9.13585 0.212402 10.2742 0.212402 11.6126C0.212402 13.3084 1.58719 14.6832 3.28308 14.6832H6.19844L10.5829 7.01049C11.1036 6.09916 12.4951 6.46869 12.4951 7.51831V11.6126H13.5187C14.3046 11.6126 14.7973 12.4616 14.4074 13.1439L13.5278 14.6832Z" fill="white"/>
<path d="M7.37732 14.6832L11.4716 7.51831V12.6361H13.5187L9.42444 19.801V14.6832H7.37732Z" fill="white"/>
</svg>
